<svg xmlns="http://www.w3.org/2000/svg" viewBox="0 0 512 512">
  <defs>
    <filter id="glow" x="-50%" y="-50%" width="200%" height="200%">
      <feGaussianBlur stdDeviation="14" result="blur"/>
      <feMerge>
        <feMergeNode in="blur"/>
        <feMergeNode in="SourceGraphic"/>
      </feMerge>
    </filter>
  </defs>
  <rect x="20" y="20" width="472" height="472" rx="100" fill="#111927"/>
  <g stroke="#9fef00" stroke-width="5" fill="none">
    <path d="M70,360 L30,320 L30,280"/>
    <path d="M442,360 L482,320 L482,280"/>
  </g>
  <circle cx="30" cy="280" r="6" fill="#9fef00"/>
  <circle cx="482" cy="280" r="6" fill="#9fef00"/>
  <polygon points="256,88 330,138 372,218 412,336 412,404 100,404 100,336 140,218 182,138"
           fill="#080a10" stroke="#9fef00" stroke-width="4"/>
  <g filter="url(#glow)">
    <polygon points="187,245 199,235 223,235 235,245 223,255 199,255" fill="#ba6eff"/>
    <polygon points="277,245 289,235 313,235 325,245 313,255 289,255" fill="#ba6eff"/>
  </g>
</svg>
